<mxfile host="app.diagrams.net" agent="Mozilla/5.0 (Macintosh; Intel Mac OS X 10_15_7) AppleWebKit/537.36 (KHTML, like Gecko) Chrome/114.0.0.0 Safari/537.36" version="24.7.14">
  <diagram name="Страница — 1" id="Ma91BWil_ssSF-kNVNje">
    <mxGraphModel dx="2465" dy="913" grid="1" gridSize="10" guides="1" tooltips="1" connect="1" arrows="1" fold="1" page="1" pageScale="1" pageWidth="827" pageHeight="1169" math="0" shadow="0">
      <root>
        <mxCell id="0" />
        <mxCell id="1" parent="0" />
        <mxCell id="qpSAZJQmiiE4QWzmZC8Z-1" value="" style="rounded=0;whiteSpace=wrap;html=1;fillColor=#e1d5e7;strokeColor=#9673a6;" vertex="1" parent="1">
          <mxGeometry x="50" y="560" width="240" height="330" as="geometry" />
        </mxCell>
        <mxCell id="qpSAZJQmiiE4QWzmZC8Z-2" value="Я как пользователь туристического мобильного приложения ,&amp;nbsp;&#xa;хочу иметь доступ к чату с консультантом , для того чтобы выбрать подходящий мне тур ." style="text;html=1;align=center;verticalAlign=middle;whiteSpace=wrap;rounded=0;fontSize=19;" vertex="1" parent="1">
          <mxGeometry x="430" y="290" width="590" height="30" as="geometry" />
        </mxCell>
        <mxCell id="qpSAZJQmiiE4QWzmZC8Z-3" value="&lt;span style=&quot;color: rgb(0, 0, 0); font-family: Helvetica; font-size: 20px; font-style: normal; font-variant-ligatures: normal; font-variant-caps: normal; font-weight: 400; letter-spacing: normal; orphans: 2; text-align: center; text-indent: 0px; text-transform: none; widows: 2; word-spacing: 0px; -webkit-text-stroke-width: 0px; white-space: normal; background-color: rgb(251, 251, 251); text-decoration-thickness: initial; text-decoration-style: initial; text-decoration-color: initial; float: none; display: inline !important;&quot;&gt;мп - тур агенства&lt;/span&gt;" style="text;html=1;align=center;verticalAlign=middle;whiteSpace=wrap;rounded=0;fontSize=20;" vertex="1" parent="1">
          <mxGeometry x="140" y="290" width="60" height="30" as="geometry" />
        </mxCell>
        <mxCell id="qpSAZJQmiiE4QWzmZC8Z-5" value="" style="rounded=0;whiteSpace=wrap;html=1;fillColor=#d5e8d4;strokeColor=#82b366;" vertex="1" parent="1">
          <mxGeometry x="440" y="550" width="240" height="330" as="geometry" />
        </mxCell>
        <mxCell id="qpSAZJQmiiE4QWzmZC8Z-6" value="" style="rounded=0;whiteSpace=wrap;html=1;fillColor=#d5e8d4;strokeColor=#82b366;" vertex="1" parent="1">
          <mxGeometry x="810" y="550" width="240" height="330" as="geometry" />
        </mxCell>
        <mxCell id="qpSAZJQmiiE4QWzmZC8Z-7" value="назад" style="rounded=0;whiteSpace=wrap;html=1;fillColor=#ffe6cc;strokeColor=#d79b00;" vertex="1" parent="1">
          <mxGeometry x="450" y="560" width="80" height="30" as="geometry" />
        </mxCell>
        <mxCell id="qpSAZJQmiiE4QWzmZC8Z-8" value="назад" style="rounded=0;whiteSpace=wrap;html=1;fillColor=#ffe6cc;strokeColor=#d79b00;" vertex="1" parent="1">
          <mxGeometry x="820" y="560" width="80" height="30" as="geometry" />
        </mxCell>
        <mxCell id="qpSAZJQmiiE4QWzmZC8Z-9" value="вернуться в меню" style="rounded=0;whiteSpace=wrap;html=1;fillColor=#e1d5e7;strokeColor=#9673a6;" vertex="1" parent="1">
          <mxGeometry x="550" y="560" width="120" height="30" as="geometry" />
        </mxCell>
        <mxCell id="qpSAZJQmiiE4QWzmZC8Z-10" value="вернуться в меню" style="rounded=0;whiteSpace=wrap;html=1;fillColor=#e1d5e7;strokeColor=#9673a6;" vertex="1" parent="1">
          <mxGeometry x="920" y="560" width="120" height="30" as="geometry" />
        </mxCell>
        <mxCell id="qpSAZJQmiiE4QWzmZC8Z-12" value="" style="endArrow=classic;html=1;rounded=0;exitX=0.5;exitY=0;exitDx=0;exitDy=0;entryX=0.75;entryY=0;entryDx=0;entryDy=0;" edge="1" parent="1" source="qpSAZJQmiiE4QWzmZC8Z-7" target="qpSAZJQmiiE4QWzmZC8Z-1">
          <mxGeometry width="50" height="50" relative="1" as="geometry">
            <mxPoint x="530" y="740" as="sourcePoint" />
            <mxPoint x="580" y="690" as="targetPoint" />
            <Array as="points">
              <mxPoint x="490" y="520" />
              <mxPoint x="360" y="520" />
              <mxPoint x="230" y="520" />
            </Array>
          </mxGeometry>
        </mxCell>
        <mxCell id="qpSAZJQmiiE4QWzmZC8Z-13" value="" style="endArrow=classic;html=1;rounded=0;entryX=0.897;entryY=-0.004;entryDx=0;entryDy=0;exitX=0.5;exitY=0;exitDx=0;exitDy=0;entryPerimeter=0;" edge="1" parent="1" source="qpSAZJQmiiE4QWzmZC8Z-8" target="qpSAZJQmiiE4QWzmZC8Z-5">
          <mxGeometry width="50" height="50" relative="1" as="geometry">
            <mxPoint x="530" y="740" as="sourcePoint" />
            <mxPoint x="580" y="690" as="targetPoint" />
            <Array as="points">
              <mxPoint x="860" y="520" />
              <mxPoint x="655" y="520" />
            </Array>
          </mxGeometry>
        </mxCell>
        <mxCell id="qpSAZJQmiiE4QWzmZC8Z-14" value="главное меню" style="text;html=1;align=center;verticalAlign=middle;whiteSpace=wrap;rounded=0;" vertex="1" parent="1">
          <mxGeometry x="100" y="570" width="120" height="30" as="geometry" />
        </mxCell>
        <mxCell id="qpSAZJQmiiE4QWzmZC8Z-17" value="чат с консультантом" style="rounded=0;whiteSpace=wrap;html=1;fillColor=#d5e8d4;strokeColor=#82b366;" vertex="1" parent="1">
          <mxGeometry x="62.5" y="810" width="217.5" height="70" as="geometry" />
        </mxCell>
        <mxCell id="qpSAZJQmiiE4QWzmZC8Z-18" value="" style="endArrow=classic;html=1;rounded=0;exitX=1;exitY=0.5;exitDx=0;exitDy=0;entryX=0;entryY=0.5;entryDx=0;entryDy=0;" edge="1" parent="1" source="qpSAZJQmiiE4QWzmZC8Z-17" target="qpSAZJQmiiE4QWzmZC8Z-5">
          <mxGeometry width="50" height="50" relative="1" as="geometry">
            <mxPoint x="530" y="740" as="sourcePoint" />
            <mxPoint x="580" y="690" as="targetPoint" />
            <Array as="points">
              <mxPoint x="360" y="845" />
              <mxPoint x="360" y="715" />
            </Array>
          </mxGeometry>
        </mxCell>
        <mxCell id="qpSAZJQmiiE4QWzmZC8Z-19" value="" style="endArrow=classic;html=1;rounded=0;exitX=0.5;exitY=0;exitDx=0;exitDy=0;" edge="1" parent="1" source="qpSAZJQmiiE4QWzmZC8Z-9">
          <mxGeometry width="50" height="50" relative="1" as="geometry">
            <mxPoint x="370" y="700" as="sourcePoint" />
            <mxPoint x="460" y="520" as="targetPoint" />
            <Array as="points">
              <mxPoint x="610" y="520" />
            </Array>
          </mxGeometry>
        </mxCell>
        <mxCell id="qpSAZJQmiiE4QWzmZC8Z-20" value="" style="endArrow=classic;html=1;rounded=0;exitX=0.5;exitY=0;exitDx=0;exitDy=0;entryX=0.449;entryY=-0.003;entryDx=0;entryDy=0;entryPerimeter=0;" edge="1" parent="1" source="qpSAZJQmiiE4QWzmZC8Z-10" target="qpSAZJQmiiE4QWzmZC8Z-1">
          <mxGeometry width="50" height="50" relative="1" as="geometry">
            <mxPoint x="710" y="700" as="sourcePoint" />
            <mxPoint x="90" y="490" as="targetPoint" />
            <Array as="points">
              <mxPoint x="980" y="500" />
              <mxPoint x="158" y="500" />
            </Array>
          </mxGeometry>
        </mxCell>
        <mxCell id="qpSAZJQmiiE4QWzmZC8Z-22" value="да , вопрос по одной из тем (***)" style="rounded=0;whiteSpace=wrap;html=1;" vertex="1" parent="1">
          <mxGeometry x="470" y="740" width="180" height="110" as="geometry" />
        </mxCell>
        <mxCell id="qpSAZJQmiiE4QWzmZC8Z-24" value="Связь с оператором" style="text;html=1;align=center;verticalAlign=middle;whiteSpace=wrap;rounded=0;" vertex="1" parent="1">
          <mxGeometry x="880" y="610" width="80" height="30" as="geometry" />
        </mxCell>
        <mxCell id="qpSAZJQmiiE4QWzmZC8Z-25" value="нет темы моего вопроса" style="rounded=0;whiteSpace=wrap;html=1;" vertex="1" parent="1">
          <mxGeometry x="470" y="640" width="180" height="60" as="geometry" />
        </mxCell>
        <mxCell id="qpSAZJQmiiE4QWzmZC8Z-26" value="" style="endArrow=classic;html=1;rounded=0;entryX=0;entryY=0.5;entryDx=0;entryDy=0;exitX=1;exitY=0.5;exitDx=0;exitDy=0;" edge="1" parent="1" source="qpSAZJQmiiE4QWzmZC8Z-25" target="qpSAZJQmiiE4QWzmZC8Z-6">
          <mxGeometry width="50" height="50" relative="1" as="geometry">
            <mxPoint x="620" y="780" as="sourcePoint" />
            <mxPoint x="670" y="730" as="targetPoint" />
            <Array as="points">
              <mxPoint x="720" y="670" />
              <mxPoint x="720" y="715" />
            </Array>
          </mxGeometry>
        </mxCell>
        <mxCell id="qpSAZJQmiiE4QWzmZC8Z-27" value="" style="rounded=0;whiteSpace=wrap;html=1;fillColor=#d5e8d4;strokeColor=#82b366;" vertex="1" parent="1">
          <mxGeometry x="440" y="920" width="240" height="330" as="geometry" />
        </mxCell>
        <mxCell id="qpSAZJQmiiE4QWzmZC8Z-28" value="Ответ по шаблону от бота&amp;nbsp;" style="text;html=1;align=center;verticalAlign=middle;whiteSpace=wrap;rounded=0;" vertex="1" parent="1">
          <mxGeometry x="485" y="980" width="150" height="30" as="geometry" />
        </mxCell>
        <mxCell id="qpSAZJQmiiE4QWzmZC8Z-29" value="не ответили на мой вопрос" style="rounded=0;whiteSpace=wrap;html=1;" vertex="1" parent="1">
          <mxGeometry x="465" y="1140" width="180" height="60" as="geometry" />
        </mxCell>
        <mxCell id="qpSAZJQmiiE4QWzmZC8Z-31" value="" style="endArrow=classic;html=1;rounded=0;entryX=0.5;entryY=1;entryDx=0;entryDy=0;exitX=1;exitY=0.5;exitDx=0;exitDy=0;" edge="1" parent="1" source="qpSAZJQmiiE4QWzmZC8Z-29" target="qpSAZJQmiiE4QWzmZC8Z-6">
          <mxGeometry width="50" height="50" relative="1" as="geometry">
            <mxPoint x="450" y="960" as="sourcePoint" />
            <mxPoint x="500" y="910" as="targetPoint" />
            <Array as="points">
              <mxPoint x="930" y="1170" />
            </Array>
          </mxGeometry>
        </mxCell>
        <mxCell id="qpSAZJQmiiE4QWzmZC8Z-33" value="назад" style="rounded=0;whiteSpace=wrap;html=1;fillColor=#ffe6cc;strokeColor=#d79b00;" vertex="1" parent="1">
          <mxGeometry x="450" y="940" width="80" height="30" as="geometry" />
        </mxCell>
        <mxCell id="qpSAZJQmiiE4QWzmZC8Z-34" value="вернуться в меню" style="rounded=0;whiteSpace=wrap;html=1;fillColor=#e1d5e7;strokeColor=#9673a6;" vertex="1" parent="1">
          <mxGeometry x="550" y="940" width="120" height="30" as="geometry" />
        </mxCell>
        <mxCell id="qpSAZJQmiiE4QWzmZC8Z-36" value="выбор туров" style="rounded=0;whiteSpace=wrap;html=1;fillColor=#fff2cc;strokeColor=#d6b656;" vertex="1" parent="1">
          <mxGeometry x="80" y="630" width="180" height="90" as="geometry" />
        </mxCell>
        <mxCell id="qpSAZJQmiiE4QWzmZC8Z-38" value="" style="endArrow=classic;html=1;rounded=0;entryX=1;entryY=0.5;entryDx=0;entryDy=0;exitX=0;exitY=0.5;exitDx=0;exitDy=0;" edge="1" parent="1" source="qpSAZJQmiiE4QWzmZC8Z-36">
          <mxGeometry width="50" height="50" relative="1" as="geometry">
            <mxPoint x="150" y="910" as="sourcePoint" />
            <mxPoint y="720" as="targetPoint" />
            <Array as="points">
              <mxPoint x="30" y="675" />
              <mxPoint x="30" y="720" />
            </Array>
          </mxGeometry>
        </mxCell>
        <mxCell id="qpSAZJQmiiE4QWzmZC8Z-47" value="" style="rounded=0;whiteSpace=wrap;html=1;fillColor=#fff2cc;strokeColor=#d6b656;" vertex="1" parent="1">
          <mxGeometry x="-140" y="660" width="140" height="150" as="geometry" />
        </mxCell>
        <mxCell id="qpSAZJQmiiE4QWzmZC8Z-48" value="Выбор туров" style="text;html=1;align=center;verticalAlign=middle;whiteSpace=wrap;rounded=0;" vertex="1" parent="1">
          <mxGeometry x="-120" y="660" width="90" height="30" as="geometry" />
        </mxCell>
        <mxCell id="qpSAZJQmiiE4QWzmZC8Z-50" value="(...)" style="rounded=0;whiteSpace=wrap;html=1;" vertex="1" parent="1">
          <mxGeometry x="-130" y="720" width="120" height="60" as="geometry" />
        </mxCell>
        <mxCell id="qpSAZJQmiiE4QWzmZC8Z-51" value="" style="endArrow=classic;html=1;rounded=0;exitX=0.5;exitY=0;exitDx=0;exitDy=0;entryX=0.445;entryY=0.998;entryDx=0;entryDy=0;entryPerimeter=0;" edge="1" parent="1" source="qpSAZJQmiiE4QWzmZC8Z-33" target="qpSAZJQmiiE4QWzmZC8Z-1">
          <mxGeometry width="50" height="50" relative="1" as="geometry">
            <mxPoint x="580" y="880" as="sourcePoint" />
            <mxPoint x="157" y="894" as="targetPoint" />
            <Array as="points">
              <mxPoint x="490" y="910" />
              <mxPoint x="157" y="910" />
            </Array>
          </mxGeometry>
        </mxCell>
        <mxCell id="qpSAZJQmiiE4QWzmZC8Z-53" value="" style="endArrow=classic;html=1;rounded=0;exitX=0.5;exitY=0;exitDx=0;exitDy=0;" edge="1" parent="1" source="qpSAZJQmiiE4QWzmZC8Z-34">
          <mxGeometry width="50" height="50" relative="1" as="geometry">
            <mxPoint x="460" y="920" as="sourcePoint" />
            <mxPoint x="350" y="910" as="targetPoint" />
            <Array as="points">
              <mxPoint x="610" y="910" />
            </Array>
          </mxGeometry>
        </mxCell>
        <mxCell id="qpSAZJQmiiE4QWzmZC8Z-54" value="&lt;font style=&quot;font-size: 16px;&quot;&gt;* Всплывает окно с временем ожидания в зависимости от показателей : &lt;br&gt;-кол-во обращений&lt;br&gt;-кол-во свободных операторов&lt;/font&gt;" style="text;html=1;align=center;verticalAlign=middle;whiteSpace=wrap;rounded=0;" vertex="1" parent="1">
          <mxGeometry x="941" y="750" width="600" height="390" as="geometry" />
        </mxCell>
        <mxCell id="qpSAZJQmiiE4QWzmZC8Z-57" value="&lt;font style=&quot;font-size: 25px;&quot;&gt;*&lt;/font&gt;" style="text;html=1;align=center;verticalAlign=middle;whiteSpace=wrap;rounded=0;" vertex="1" parent="1">
          <mxGeometry x="970" y="830" width="60" height="30" as="geometry" />
        </mxCell>
        <mxCell id="qpSAZJQmiiE4QWzmZC8Z-58" value="" style="endArrow=classic;html=1;rounded=0;entryX=0.996;entryY=0.048;entryDx=0;entryDy=0;entryPerimeter=0;exitX=1;exitY=0.5;exitDx=0;exitDy=0;" edge="1" parent="1" source="qpSAZJQmiiE4QWzmZC8Z-22" target="qpSAZJQmiiE4QWzmZC8Z-27">
          <mxGeometry width="50" height="50" relative="1" as="geometry">
            <mxPoint x="620" y="910" as="sourcePoint" />
            <mxPoint x="670" y="860" as="targetPoint" />
            <Array as="points">
              <mxPoint x="720" y="795" />
              <mxPoint x="720" y="936" />
            </Array>
          </mxGeometry>
        </mxCell>
        <mxCell id="qpSAZJQmiiE4QWzmZC8Z-59" value="Приветствие + предложение с популярными вопросами (***)" style="text;html=1;align=center;verticalAlign=middle;whiteSpace=wrap;rounded=0;" vertex="1" parent="1">
          <mxGeometry x="480" y="600" width="170" height="30" as="geometry" />
        </mxCell>
      </root>
    </mxGraphModel>
  </diagram>
</mxfile>
